Coordinates
version=1
nRows=17
nColumns=34
inDegrees=yes

Units are S.I. units (second, meters, Newtons, ...)
If the header above contains a line with 'inDegrees', this indicates whether rotational values are in degrees (yes) or radians (no).

endheader
time	pelvis_tilt	pelvis_list	pelvis_rotation	pelvis_tx	pelvis_ty	pelvis_tz	hip_flexion_r	hip_adduction_r	hip_rotation_r	knee_angle_r	ankle_angle_r	subtalar_angle_r	mtp_angle_r	hip_flexion_l	hip_adduction_l	hip_rotation_l	knee_angle_l	ankle_angle_l	subtalar_angle_l	mtp_angle_l	lumbar_extension	lumbar_bending	lumbar_rotation	arm_flex_r	arm_add_r	arm_rot_r	elbow_flex_r	pro_sup_r	arm_flex_l	arm_add_l	arm_rot_l	elbow_flex_l	pro_sup_l
      1.36666670	     -5.28866160	      0.91598443	     -5.66500380	      1.69190730	      0.87247500	     -0.00130139	      3.62321506	     -4.67065451	     -1.70618632	      0.00000000	      1.87608230	    -19.17856787	      0.00000000	      2.66511333	     -3.59518902	      1.59384377	      0.36540404	      0.63543642	    -12.03189204	      0.00000000	     -3.46401580	      1.04345062	      0.06678155	      5.50837608	     -8.50640568	     45.06428981	     89.24550773	     89.79111270	      4.86560789	     -8.05054310	     30.61038053	     81.24518535	     89.35247577
      1.38333330	     -5.31274669	      0.83450960	     -5.65797997	      1.69172276	      0.87233378	     -0.00097214	      3.67771895	     -4.56219699	     -1.75114210	      0.00000000	      1.88363854	    -19.18701038	      0.00000000	      2.53774286	     -3.67183776	      1.65263760	      0.13229027	      0.72931688	    -11.97940188	      0.00000000	     -3.48559017	      0.98067423	      0.14921317	      5.65150111	     -8.46550525	     45.02847821	     89.22780956	     89.77152616	      4.90473553	     -8.14366545	     30.58932647	     81.26187844	     89.33526189
      1.40000000	     -5.29653642	      0.78352537	     -5.59747226	      1.69177909	      0.87252386	     -0.00086871	      3.66827157	     -4.48941902	     -1.74109236	      0.00000000	      1.87850941	    -19.16849368	      0.00000000	      2.43237878	     -3.68318335	      1.69204430	      0.00000000	      0.77940737	    -11.92593739	      0.00000000	     -3.45753598	      0.97455740	      0.19895495	      5.75907244	     -8.49278539	     44.98618504	     89.21339439	     89.75741938	      4.90947961	     -8.20305568	     30.58464189	     81.28456976	     89.32467376
      1.41666670	     -5.25253919	      0.68756058	     -5.57939628	      1.69210237	      0.87266958	     -0.00058751	      3.62245387	     -4.35680936	     -1.73667328	      0.00000000	      1.88039308	    -19.14426330	      0.00000000	      2.32342572	     -3.78506504	      1.77594794	      0.00000000	      0.86187103	    -11.83027677	      0.00000000	     -3.42732711	      0.90148103	      0.26668868	      5.95909742	     -8.58776777	     44.89231891	     89.19403691	     89.73593738	      4.89346091	     -8.31091252	     30.58152134	     81.31443857	     89.31032060
      1.43333330	     -5.26047382	      0.67875495	     -5.55988232	      1.69251333	      0.87255422	     -0.00061640	      3.63810700	     -4.33243320	     -1.73433318	      0.00000000	      1.88044916	    -19.14221863	      0.00000000	      2.29519474	     -3.76291765	      1.77600966	      0.00000000	      0.86653629	    -11.82759637	      0.00000000	     -3.42946836	      0.90089931	      0.26959302	      5.96754305	     -8.59259632	     44.88825683	     89.19281566	     89.73500279	      4.89322798	     -8.31551212	     30.58134656	     81.31598667	     89.30972628
      1.45000000	     -5.06591975	      0.50034348	     -5.45572050	      1.69279813	      0.87287043	     -0.00114175	      3.37310941	     -4.15480803	     -1.74321550	      0.00000000	      1.94615773	    -19.05684494	      0.00000000	      2.04509465	     -3.92188037	      1.86161863	      0.00000000	      1.33963270	    -11.55907894	      0.00000000	     -3.58765333	      1.07557530	      0.24311576	      6.36762254	     -8.97042733	     44.63421476	     89.11551256	     89.65374136	      4.87668236	     -8.52304882	     30.65223012	     81.51938212	     89.26090706
      1.46666670	     -5.04529367	      0.44626203	     -5.37521171	      1.69325825	      0.87313171	     -0.00183696	      3.30081291	     -4.09010010	     -1.74246661	      0.00000000	      1.94774295	    -19.03791249	      0.00000000	      1.99853141	     -3.97978460	      1.83232790	      0.00000000	      1.36835431	    -11.53085314	      0.00000000	     -3.57243829	      0.95874727	      0.26458989	      6.43518594	     -8.99116365	     44.60408659	     89.13434365	     89.64317422	      4.83339232	     -8.53842961	     30.66698063	     81.53925517	     89.25409700
      1.48333330	     -4.95701423	      0.40357638	     -5.35907859	      1.69365518	      0.87330490	     -0.00266376	      3.16500611	     -4.07848840	     -1.76146022	      0.00000000	      1.95644600	    -19.00664525	      0.00000000	      1.85625809	     -4.00922850	      1.80920787	      0.00000000	      1.43335724	    -11.46325141	      0.00000000	     -3.49395540	      0.89587572	      0.22590334	      6.61845917	     -9.21313188	     44.45129565	     89.16286190	     89.61809900	      4.76543749	     -8.55705951	     30.69962011	     81.60747518	     89.24200015
      1.50000000	     -4.97231327	      0.39050035	     -5.35603472	      1.69374794	      0.87307091	     -0.00317615	      3.15475646	     -4.10216318	     -1.76167702	      0.00000000	      1.95650747	    -19.00458820	      0.00000000	      1.84148196	     -4.02135388	      1.80754311	      0.00000000	      1.43709089	    -11.46033370	      0.00000000	     -3.49667498	      0.89539913	      0.22508082	      6.62520987	     -9.22114762	     44.44489957	     89.16452082	     89.61687277	      4.76273948	     -8.55919207	     30.70044666	     81.61092223	     89.24136724
      1.51666670	     -4.33946884	      0.31506166	     -5.28922272	      1.69333678	      0.87343999	     -0.00341761	      2.40979577	     -4.12929159	     -2.03586326	      0.00000000	      2.20360056	    -18.54640450	      0.00000000	      1.12482438	     -4.02490401	      1.53392735	      0.00000000	      2.02423258	    -10.57641443	      0.00000000	     -4.41783466	      0.88637085	      0.10746797	      6.80482004	     -9.49229327	     43.93358190	     89.83739528	     89.32071492	      4.72017888	     -8.73660529	     30.66145543	     82.58878154	     89.04372834
      1.53333330	     -4.34687634	      0.30683585	     -5.28890317	      1.69304881	      0.87268922	     -0.00320012	      2.40458424	     -4.13439560	     -2.03625661	      0.00000000	      2.20341523	    -18.54632080	      0.00000000	      1.12034637	     -4.02323115	      1.53396192	      0.00000000	      2.02453460	    -10.57626631	      0.00000000	     -4.41706159	      0.88610734	      0.10739778	      6.80502127	     -9.49293072	     43.93323270	     89.83745127	     89.32059902	      4.71993951	     -8.73666210	     30.66144469	     82.58885369	     89.04365353
      1.55000000	     -4.35257402	      0.30142895	     -5.28966340	      1.69290816	      0.87212079	     -0.00307791	      2.39880633	     -4.13782137	     -2.03718864	      0.00000000	      2.20320903	    -18.54657434	      0.00000000	      1.11638173	     -4.02361187	      1.53438888	      0.00000000	      2.02534127	    -10.57613068	      0.00000000	     -4.41483330	      0.88544422	      0.10725029	      6.80571243	     -9.49422795	     43.93230427	     89.83783076	     89.32043531	      4.71995247	     -8.73705869	     30.66112011	     82.58931922	     89.04355090
      1.56666670	     -4.28236198	      0.24463924	     -5.32703116	      1.69328976	      0.87227380	     -0.00320778	      2.28311637	     -4.08399097	     -2.11941075	      0.00000000	      2.19545980	    -18.58670672	      0.00000000	      0.98396167	     -4.08330003	      1.58766971	      0.00000000	      2.11119344	    -10.57048353	      0.00000000	     -4.17536926	      0.85283371	      0.10463004	      6.87079108	     -9.61914815	     43.84093813	     89.88401223	     89.30792975	      4.72314424	     -8.78237532	     30.62090125	     82.64653105	     89.03597745
      1.58333330	     -4.28550466	      0.23287059	     -5.32508540	      1.69371646	      0.87273794	     -0.00373438	      2.26941091	     -4.09238719	     -2.12292843	      0.00000000	      2.19411208	    -18.58898022	      0.00000000	      0.99302311	     -4.08336296	      1.59050412	      0.00000000	      2.11791450	    -10.57025926	      0.00000000	     -4.17461727	      0.85672463	      0.10780944	      6.87357956	     -9.62634945	     43.83528439	     89.88609428	     89.30692851	      4.72046668	     -8.78686022	     30.61778660	     82.64919840	     89.03535509
      1.60000000	     -4.23943335	      0.22487826	     -5.22687585	      1.69421355	      0.87348787	     -0.00424680	      2.16816274	     -4.12024437	     -2.20662909	      0.00000000	      2.15784439	    -18.63082466	      0.00000000	      0.97362804	     -4.06876792	      1.65641109	      0.00000000	      2.20914134	    -10.55538528	      0.00000000	     -4.09101528	      0.96621704	      0.15335559	      6.92763007	     -9.77057789	     43.73133909	     89.92955405	     89.29098245	      4.67794250	     -8.83017558	     30.56948527	     82.71477472	     89.02625605
      1.61666670	     -4.24180115	      0.21349597	     -5.24072353	      1.69448216	      0.87390915	     -0.00432406	      2.15625578	     -4.13561953	     -2.21342787	      0.00121182	      2.15564928	    -18.63395964	      0.00000000	      0.98056867	     -4.07972049	      1.66220518	      0.00000000	      2.21143340	    -10.55303061	      0.00000000	     -4.09059838	      0.96556002	      0.15067661	      6.92621169	     -9.77373361	     43.72819337	     89.93256535	     89.29020361	      4.67837295	     -8.82915841	     30.56769265	     82.71873730	     89.02577416
      1.63333330	     -4.24011011	      0.20795893	     -5.24261733	      1.69445909	      0.87354662	     -0.00412193	      2.15242868	     -4.13960643	     -2.21488220	      0.00229974	      2.15506417	    -18.63448329	      0.00000000	      0.98310328	     -4.07911287	      1.66318252	      0.00000000	      2.21167346	    -10.55257059	      0.00000000	     -4.08999374	      0.96597443	      0.15043510	      6.92580195	     -9.77421205	     43.72778828	     89.93311503	     89.29007572	      4.67827881	     -8.82865196	     30.56745086	     82.71957079	     89.02569523
